<svg width="520" height="140" viewBox="0 0 520 140" fill="none" xmlns="http://www.w3.org/2000/svg">
<rect x="250" y="17" width="270" height="101" rx="2" fill="#212529"/>
<path d="M36.576 99.248C26.336 99.248 18.336 96.496 12.576 90.992C6.816 85.488 3.936 77.712 3.936 67.664C3.936 60.816 5.28 54.768 7.968 49.52C10.72 44.272 14.592 40.24 19.584 37.424C24.576 34.544 30.336 33.104 36.864 33.104C42.176 33.104 47.296 34.064 52.224 35.984L49.632 48.368C45.28 46.384 41.056 45.392 36.96 45.392C31.136 45.392 26.528 47.312 23.136 51.152C19.744 54.928 18.048 59.984 18.048 66.32C18.048 72.784 19.84 77.808 23.424 81.392C27.008 84.976 31.968 86.768 38.304 86.768C42.464 86.768 46.496 86.096 50.4 84.752L52.512 96.56C47.84 98.352 42.528 99.248 36.576 99.248ZM72.836 99.11C68.8893 99.11 65.7567 97.4327 63.438 94.078C61.1193 90.7233 59.96 86.16 59.96 80.388C59.96 73.3827 61.736 68.0547 65.288 64.404C68.84 60.704 73.946 58.854 80.606 58.854C84.3553 58.854 88.746 59.446 93.778 60.63V98H83.862L84.084 91.932H83.788C82.5053 94.2507 80.9267 96.0267 79.052 97.26C77.2267 98.4933 75.1547 99.11 72.836 99.11ZM75.056 90.008C76.5853 90.008 78.09 89.194 79.57 87.566C81.05 85.938 82.4313 83.7673 83.714 81.054V68.622C82.1353 68.178 80.5567 67.956 78.978 67.956C76.018 67.956 73.7733 68.9673 72.244 70.99C70.764 73.0127 70.024 75.9973 70.024 79.944C70.024 83.052 70.468 85.5187 71.356 87.344C72.244 89.12 73.4773 90.008 75.056 90.008ZM103.946 59.89H114.38V66.106H114.972C116.403 63.59 117.809 61.74 119.19 60.556C120.621 59.372 122.397 58.78 124.518 58.78C125.406 58.78 126.146 58.8787 126.738 59.076L125.628 70.324C124.345 69.9787 123.309 69.806 122.52 69.806C121.385 69.806 120.374 70.028 119.486 70.472C118.647 70.916 117.883 71.508 117.192 72.248C116.551 72.988 115.613 74.1227 114.38 75.652V98H103.946V59.89ZM149.962 99.11C143.795 99.11 138.936 97.334 135.384 93.782C131.881 90.23 130.13 85.2967 130.13 78.982C130.13 74.8873 130.895 71.3353 132.424 68.326C133.953 65.2673 136.099 62.924 138.862 61.296C141.674 59.668 144.955 58.854 148.704 58.854C154.229 58.854 158.472 60.63 161.432 64.182C164.392 67.734 165.872 72.8647 165.872 79.574C165.872 80.7087 165.847 81.5473 165.798 82.09H140.638C141.131 84.7047 142.266 86.7027 144.042 88.084C145.818 89.416 148.211 90.082 151.22 90.082C153.045 90.082 154.945 89.86 156.918 89.416C158.891 88.9227 160.618 88.2813 162.098 87.492L163.8 95.854C161.827 96.89 159.631 97.6793 157.214 98.222C154.846 98.814 152.429 99.11 149.962 99.11ZM155.882 74.246C155.734 72.1247 154.994 70.4473 153.662 69.214C152.33 67.9313 150.554 67.29 148.334 67.29C146.213 67.29 144.461 67.9067 143.08 69.14C141.748 70.3733 140.909 72.0753 140.564 74.246H155.882ZM192.021 99.11C185.854 99.11 180.995 97.334 177.443 93.782C173.94 90.23 172.189 85.2967 172.189 78.982C172.189 74.8873 172.953 71.3353 174.483 68.326C176.012 65.2673 178.158 62.924 180.921 61.296C183.733 59.668 187.013 58.854 190.763 58.854C196.288 58.854 200.531 60.63 203.491 64.182C206.451 67.734 207.931 72.8647 207.931 79.574C207.931 80.7087 207.906 81.5473 207.857 82.09H182.697C183.19 84.7047 184.325 86.7027 186.101 88.084C187.877 89.416 190.269 90.082 193.279 90.082C195.104 90.082 197.003 89.86 198.977 89.416C200.95 88.9227 202.677 88.2813 204.157 87.492L205.859 95.854C203.885 96.89 201.69 97.6793 199.273 98.222C196.905 98.814 194.487 99.11 192.021 99.11ZM197.941 74.246C197.793 72.1247 197.053 70.4473 195.721 69.214C194.389 67.9313 192.613 67.29 190.393 67.29C188.271 67.29 186.52 67.9067 185.139 69.14C183.807 70.3733 182.968 72.0753 182.623 74.246H197.941ZM215.958 59.89H226.392V66.106H226.984C228.414 63.59 229.82 61.74 231.202 60.556C232.632 59.372 234.408 58.78 236.53 58.78C237.418 58.78 238.158 58.8787 238.75 59.076L237.64 70.324C236.357 69.9787 235.321 69.806 234.532 69.806C233.397 69.806 232.386 70.028 231.498 70.472C230.659 70.916 229.894 71.508 229.204 72.248C228.562 72.988 227.625 74.1227 226.392 75.652V98H215.958V59.89Z" fill="#212529"/>
<path d="M297.576 99.248C287.336 99.248 279.336 96.496 273.576 90.992C267.816 85.488 264.936 77.712 264.936 67.664C264.936 60.816 266.28 54.768 268.968 49.52C271.72 44.272 275.592 40.24 280.584 37.424C285.576 34.544 291.336 33.104 297.864 33.104C303.176 33.104 308.296 34.064 313.224 35.984L310.632 48.368C306.28 46.384 302.056 45.392 297.96 45.392C292.136 45.392 287.528 47.312 284.136 51.152C280.744 54.928 279.048 59.984 279.048 66.32C279.048 72.784 280.84 77.808 284.424 81.392C288.008 84.976 292.968 86.768 299.304 86.768C303.464 86.768 307.496 86.096 311.4 84.752L313.512 96.56C308.84 98.352 303.528 99.248 297.576 99.248ZM340.422 99.11C336.574 99.11 333.17 98.2713 330.21 96.594C327.299 94.9167 325.03 92.5733 323.402 89.564C321.774 86.5053 320.96 82.978 320.96 78.982C320.96 74.986 321.749 71.4833 323.328 68.474C324.956 65.4153 327.225 63.0473 330.136 61.37C333.096 59.6927 336.5 58.854 340.348 58.854C344.196 58.854 347.575 59.6927 350.486 61.37C353.446 62.998 355.715 65.3167 357.294 68.326C358.922 71.3353 359.736 74.8133 359.736 78.76C359.736 82.756 358.922 86.308 357.294 89.416C355.715 92.4747 353.446 94.8673 350.486 96.594C347.575 98.2713 344.221 99.11 340.422 99.11ZM340.348 90.082C343.012 90.082 345.133 89.0707 346.712 87.048C348.34 84.976 349.154 82.2627 349.154 78.908C349.154 75.5533 348.34 72.8893 346.712 70.916C345.133 68.8933 343.012 67.882 340.348 67.882C337.684 67.882 335.538 68.8933 333.91 70.916C332.331 72.8893 331.542 75.5533 331.542 78.908C331.542 82.2627 332.331 84.976 333.91 87.048C335.538 89.0707 337.684 90.082 340.348 90.082ZM367.692 59.89H378.126V66.106H378.718C380.149 63.59 381.555 61.74 382.936 60.556C384.367 59.372 386.143 58.78 388.264 58.78C389.152 58.78 389.892 58.8787 390.484 59.076L389.374 70.324C388.091 69.9787 387.055 69.806 386.266 69.806C385.131 69.806 384.12 70.028 383.232 70.472C382.393 70.916 381.629 71.508 380.938 72.248C380.297 72.988 379.359 74.1227 378.126 75.652V98H367.692V59.89ZM397.027 59.89H407.239V66.476C408.817 63.8613 410.643 61.9373 412.715 60.704C414.787 59.4707 417.204 58.854 419.967 58.854C424.061 58.854 427.268 60.0873 429.587 62.554C431.905 64.9713 433.065 68.3507 433.065 72.692V98H422.631V74.32C422.631 72.3467 422.137 70.8173 421.151 69.732C420.164 68.5973 418.832 68.03 417.155 68.03C415.181 68.03 413.307 68.77 411.531 70.25C409.755 71.73 408.398 73.6047 407.461 75.874V98H397.027V59.89ZM460.681 99.11C454.514 99.11 449.655 97.334 446.103 93.782C442.6 90.23 440.849 85.2967 440.849 78.982C440.849 74.8873 441.613 71.3353 443.143 68.326C444.672 65.2673 446.818 62.924 449.581 61.296C452.393 59.668 455.673 58.854 459.423 58.854C464.948 58.854 469.191 60.63 472.151 64.182C475.111 67.734 476.591 72.8647 476.591 79.574C476.591 80.7087 476.566 81.5473 476.517 82.09H451.357C451.85 84.7047 452.985 86.7027 454.761 88.084C456.537 89.416 458.929 90.082 461.939 90.082C463.764 90.082 465.663 89.86 467.637 89.416C469.61 88.9227 471.337 88.2813 472.817 87.492L474.519 95.854C472.545 96.89 470.35 97.6793 467.933 98.222C465.565 98.814 463.147 99.11 460.681 99.11ZM466.601 74.246C466.453 72.1247 465.713 70.4473 464.381 69.214C463.049 67.9313 461.273 67.29 459.053 67.29C456.931 67.29 455.18 67.9067 453.799 69.14C452.467 70.3733 451.628 72.0753 451.283 74.246H466.601ZM484.618 59.89H495.052V66.106H495.644C497.075 63.59 498.481 61.74 499.862 60.556C501.293 59.372 503.069 58.78 505.19 58.78C506.078 58.78 506.818 58.8787 507.41 59.076L506.3 70.324C505.017 69.9787 503.981 69.806 503.192 69.806C502.057 69.806 501.046 70.028 500.158 70.472C499.319 70.916 498.555 71.508 497.864 72.248C497.223 72.988 496.285 74.1227 495.052 75.652V98H484.618V59.89Z" fill="white"/>
</svg>
