<?xml version="1.0" standalone="no"?>
<!DOCTYPE svg PUBLIC "-//W3C//DTD SVG 20010904//EN"
 "http://www.w3.org/TR/2001/REC-SVG-20010904/DTD/svg10.dtd">
<svg version="1.0" xmlns="http://www.w3.org/2000/svg"
 width="200.000000pt" height="200.000000pt" viewBox="0 0 200.000000 200.000000"
 preserveAspectRatio="xMidYMid meet">

<g transform="translate(0.000000,200.000000) scale(0.100000,-0.100000)"
fill="#000000" stroke="none">
<path d="M513 1463 c12 -42 209 -509 218 -518 11 -11 104 84 115 118 3 10 -29
101 -78 217 l-83 200 -88 0 c-80 0 -89 -2 -84 -17z"/>
<path d="M740 1473 c0 -15 211 -518 221 -528 7 -7 26 7 60 45 27 30 51 63 55
72 3 10 -30 104 -78 218 l-83 200 -87 0 c-49 0 -88 -3 -88 -7z"/>
<path d="M970 1472 c0 -21 216 -524 225 -524 9 0 225 504 225 525 0 4 -40 7
-88 7 l-89 0 -24 -57 -25 -58 -24 58 -24 57 -88 0 c-48 0 -88 -4 -88 -8z"/>
<path d="M220 700 l0 -90 55 0 c42 0 55 3 55 15 0 11 -11 15 -40 15 l-40 0 0
75 c0 60 -3 75 -15 75 -12 0 -15 -17 -15 -90z"/>
<path d="M360 700 c0 -73 3 -90 15 -90 12 0 15 17 15 90 0 73 -3 90 -15 90
-12 0 -15 -17 -15 -90z"/>
<path d="M430 700 c0 -83 2 -90 20 -90 16 0 19 8 22 58 l3 57 33 -57 c23 -39
40 -58 53 -58 17 0 19 8 19 90 0 83 -2 90 -20 90 -16 0 -19 -8 -22 -57 l-3
-58 -33 58 c-23 38 -40 57 -53 57 -17 0 -19 -8 -19 -90z"/>
<path d="M610 716 c0 -66 3 -77 22 -90 30 -22 81 -20 101 2 23 26 25 162 2
162 -12 0 -15 -14 -15 -70 0 -58 -3 -71 -19 -80 -25 -13 -27 -13 -45 6 -11 11
-16 35 -16 80 0 50 -3 64 -15 64 -12 0 -15 -15 -15 -74z"/>
<path d="M804 745 l27 -45 -26 -40 c-30 -47 -30 -50 -6 -50 11 0 23 12 31 30
7 17 16 30 20 30 4 0 13 -13 20 -30 8 -18 20 -30 31 -30 24 0 24 7 -6 54 l-23
39 24 38 c29 46 29 49 5 49 -11 0 -23 -12 -31 -30 -7 -16 -16 -30 -20 -30 -4
0 -13 14 -20 30 -8 19 -20 30 -32 30 -19 0 -18 -2 6 -45z"/>
<path d="M942 779 c3 -8 13 -49 23 -91 10 -43 22 -78 26 -78 5 0 18 35 31 77
l24 78 23 -78 c12 -42 26 -77 30 -77 4 0 16 35 26 78 10 42 20 83 23 91 3 8 1
12 -5 8 -6 -4 -13 -21 -17 -39 -3 -17 -11 -50 -17 -72 l-12 -41 -21 75 c-12
41 -26 75 -30 75 -5 0 -19 -34 -31 -75 l-22 -74 -18 72 c-9 40 -22 75 -28 79
-6 4 -8 0 -5 -8z"/>
<path d="M1197 772 c-12 -13 -17 -36 -17 -74 0 -64 19 -88 67 -88 44 0 68 32
68 90 0 33 -6 54 -19 69 -24 26 -77 28 -99 3z m85 -9 c24 -21 25 -99 1 -125
-39 -44 -93 -9 -93 60 0 72 47 106 92 65z"/>
<path d="M1362 698 c1 -51 3 -74 5 -50 l4 43 42 -3 c38 -3 42 -6 45 -33 5 -43
22 -56 22 -17 0 17 -6 37 -14 44 -11 11 -11 16 1 35 14 21 14 26 -1 48 -14 21
-25 25 -61 25 l-45 0 2 -92z m86 70 c30 -30 1 -68 -52 -68 -24 0 -26 4 -26 40
0 39 1 40 33 40 18 0 38 -5 45 -12z"/>
<path d="M1520 700 l0 -90 58 2 c56 2 56 2 10 5 l-48 4 0 85 c0 49 -4 84 -10
84 -6 0 -10 -37 -10 -90z"/>
<path d="M1660 700 l0 -90 38 0 c21 0 47 7 59 15 43 30 38 131 -8 155 -10 6
-34 10 -53 10 l-36 0 0 -90z m88 64 c17 -12 22 -25 22 -60 0 -53 -26 -84 -70
-84 l-30 0 0 80 0 80 28 0 c15 0 38 -7 50 -16z"/>
</g>
</svg>
